<?xml version="1.0" encoding="utf-8"?>
<!-- Generator: Adobe Illustrator 17.0.0, SVG Export Plug-In . SVG Version: 6.00 Build 0)  -->
<!DOCTYPE svg PUBLIC "-//W3C//DTD SVG 1.1//EN" "http://www.w3.org/Graphics/SVG/1.1/DTD/svg11.dtd">
<svg version="1.1" id="Layer_1" xmlns="http://www.w3.org/2000/svg" xmlns:xlink="http://www.w3.org/1999/xlink" x="0px" y="0px"
	 width="173.785px" height="40.563px" viewBox="0 0 173.785 40.563" enable-background="new 0 0 173.785 40.563"
	 xml:space="preserve">
<g>
	<g>
		<g>
			<path fill="#3A827C" d="M12.955,31.862l1.541-1.767c3.491,3.219,6.709,4.715,11.379,4.715c4.76,0,8.024-2.675,8.024-6.302v-0.091
				c0-3.354-1.768-5.304-8.976-6.754c-7.616-1.542-10.699-4.126-10.699-8.932v-0.09c0-4.715,4.307-8.342,10.2-8.342
				c4.624,0,7.662,1.27,10.88,3.853l-1.496,1.858c-2.992-2.584-5.984-3.581-9.475-3.581c-4.669,0-7.752,2.674-7.752,5.984v0.09
				c0,3.356,1.723,5.395,9.248,6.937c7.344,1.496,10.427,4.126,10.427,8.749v0.091c0,5.123-4.397,8.659-10.517,8.659
				C20.662,36.94,16.763,35.263,12.955,31.862z"/>
			<path fill="#3A827C" d="M44.329,4.753h2.357v31.734h-2.357V4.753z"/>
			<path fill="#3A827C" d="M56.433,4.753h13.328c3.898,0,7.027,1.225,8.931,3.129c1.496,1.495,2.403,3.626,2.403,5.893v0.091
				c0,5.304-3.944,8.341-9.294,9.067l10.472,13.555h-2.992L69.172,23.34H58.791v13.147h-2.358V4.753z M69.489,21.21
				c5.304,0,9.248-2.676,9.248-7.254v-0.091c0-4.261-3.355-6.937-9.112-6.937H58.791V21.21H69.489z"/>
			<path fill="#3A827C" d="M89.529,4.753h2.358v31.734h-2.358V4.753z"/>
			<path fill="#3A827C" d="M101.135,23.294V4.753h2.357v18.314c0,7.481,4.035,11.787,10.744,11.787
				c6.438,0,10.563-3.898,10.563-11.561V4.753h2.357v18.27c0,9.112-5.304,13.963-13.011,13.963
				C106.529,36.985,101.135,32.181,101.135,23.294z"/>
			<path fill="#3A827C" d="M134.05,31.862l1.541-1.767c3.491,3.219,6.71,4.715,11.379,4.715c4.76,0,8.024-2.675,8.024-6.302v-0.091
				c0-3.354-1.769-5.304-8.977-6.754c-7.616-1.542-10.698-4.126-10.698-8.932v-0.09c0-4.715,4.307-8.342,10.2-8.342
				c4.624,0,7.661,1.27,10.88,3.853l-1.496,1.858c-2.992-2.584-5.984-3.581-9.475-3.581c-4.67,0-7.752,2.674-7.752,5.984v0.09
				c0,3.356,1.723,5.395,9.248,6.937c7.344,1.496,10.427,4.126,10.427,8.749v0.091c0,5.123-4.397,8.659-10.518,8.659
				C141.757,36.94,137.857,35.263,134.05,31.862z"/>
		</g>
	</g>
</g>
</svg>
