<?xml version="1.0" encoding="utf-8"?>
<!-- Generator: Adobe Illustrator 17.0.0, SVG Export Plug-In . SVG Version: 6.00 Build 0)  -->
<!DOCTYPE svg PUBLIC "-//W3C//DTD SVG 1.1//EN" "http://www.w3.org/Graphics/SVG/1.1/DTD/svg11.dtd">
<svg version="1.1" id="Layer_1" xmlns="http://www.w3.org/2000/svg" xmlns:xlink="http://www.w3.org/1999/xlink" x="0px" y="0px"
	 width="173.785px" height="171.447px" viewBox="0 0 173.785 171.447" enable-background="new 0 0 173.785 171.447"
	 xml:space="preserve">
<g>
	<g>
		<polygon fill="#FFF57D" points="75.283,105.836 128.51,89.693 84.374,46.234 		"/>
		<polygon fill="#A32D1A" points="160.53,46.234 128.51,89.693 173.785,87.074 		"/>
		<polygon fill="#F05E3D" points="134.471,13.256 128.51,89.693 160.53,46.234 		"/>
		<polygon fill="#EFDF4B" points="84.374,46.234 134.471,13.256 128.51,89.693 		"/>
		<polygon fill="#20AFAF" points="97.911,0 52.658,3.199 84.373,46.234 		"/>
		<polygon fill="#6CDDDA" points="97.911,0 134.471,13.256 84.373,46.234 		"/>
		<polygon fill="#3A827C" points="52.658,3.199 18.376,32.91 84.374,46.234 		"/>
		<polygon fill="#C73514" points="65.307,73.492 84.374,46.234 18.376,32.91 		"/>
		<polygon fill="#6CDDDA" points="33.917,118.385 27.06,151.852 60.924,170.35 		"/>
		<path fill="#A3A158" d="M33.917,118.385"/>
		<polygon fill="#20AFAF" points="33.917,118.385 60.924,170.35 75.283,105.836 		"/>
		<polygon fill="#FFF57D" points="60.924,170.35 92.114,133.129 107.825,170.35 		"/>
		<path fill="#EFDF4B" d="M92.114,133.129l15.711,37.221c0,0,37.76-22.131,36.697-21.121L92.114,133.129z"/>
		<polygon fill="#6CDDDA" points="92.114,133.129 128.51,89.693 144.522,149.229 		"/>
		<polygon fill="#20AFAF" points="128.51,89.693 144.522,149.229 173.785,87.074 		"/>
		<polygon fill="#EFDF4B" points="84.374,46.234 53.981,89.693 75.283,105.836 		"/>
		<polygon fill="#FFF57D" points="33.917,118.385 53.981,89.693 75.283,105.836 		"/>
		<polygon fill="#3A827C" points="75.283,105.836 92.114,133.129 128.51,89.693 		"/>
		<polygon fill="#A32D1A" points="75.283,105.836 60.924,170.35 92.114,133.129 		"/>
		<polygon fill="#A32D1A" points="18.376,32.91 49.417,96.213 65.307,73.492 		"/>
		<polygon fill="#F05E3D" points="18.376,32.91 0,67.963 39.523,76.035 		"/>
		<polyline fill="#A32D1A" points="0,67.963 4.149,119.459 19.762,100.299 39.523,76.035 		"/>
		<polygon fill="#6CDDDA" points="39.523,76.035 23.084,96.213 49.417,96.213 		"/>
		<polygon fill="#20AFAF" points="23.084,96.213 49.417,96.213 33.917,118.385 		"/>
		<polygon fill="#FFF57D" points="33.917,118.385 23.084,96.213 4.149,119.459 		"/>
		<polygon fill="#EFDF4B" points="4.149,119.459 33.917,118.385 27.06,151.852 		"/>
	</g>
</g>
</svg>
